HIERARCHY
ROOT Hips
{
	OFFSET 0.000000 0.000000 0.000000
	CHANNELS 6 Xposition Yposition Zposition Xrotation Yrotation Zrotation
	JOINT LeftUpLeg_virtual
	{
		OFFSET 0.000000 0.000000 0.000000
		CHANNELS 3 Xrotation Yrotation Zrotation
		JOINT LeftUpLeg
		{
			OFFSET 13.026900 -6.336304 -1.092800
			CHANNELS 3 Xrotation Yrotation Zrotation
			JOINT LeftLeg
			{
				OFFSET 0.524474 -46.096886 9.782700
				CHANNELS 3 Xrotation Yrotation Zrotation
				JOINT LeftFoot
				{
					OFFSET -0.524474 -53.427422 -12.948200
					CHANNELS 3 Xrotation Yrotation Zrotation
					JOINT LeftToeBase
					{
						OFFSET 0.192200 -14.009700 16.364100
						CHANNELS 3 Xrotation Yrotation Zrotation
						JOINT LeftToe_End
						{
							OFFSET -1.784700 -0.561700 9.474800
							CHANNELS 3 Xrotation Yrotation Zrotation
							End Site
							{
								OFFSET 0 0 0
							}
						}
					}
				}
			}
		}
	}
	JOINT RightUpLeg_virtual
	{
		OFFSET 0.000000 0.000000 0.000000
		CHANNELS 3 Xrotation Yrotation Zrotation
		JOINT RightUpLeg
		{
			OFFSET -12.883000 -6.336304 -1.092800
			CHANNELS 3 Xrotation Yrotation Zrotation
			JOINT RightLeg
			{
				OFFSET -0.524587 -46.096825 9.782800
				CHANNELS 3 Xrotation Yrotation Zrotation
				JOINT RightFoot
				{
					OFFSET 0.524587 -53.427383 -12.948300
					CHANNELS 3 Xrotation Yrotation Zrotation
					JOINT RightToeBase
					{
						OFFSET -0.192200 -14.009700 16.364100
						CHANNELS 3 Xrotation Yrotation Zrotation
						JOINT RightToe_End
						{
							OFFSET 1.784700 -0.561700 9.474800
							CHANNELS 3 Xrotation Yrotation Zrotation
							End Site
							{
								OFFSET 0 0 0
							}
						}
					}
				}
			}
		}
	}
	JOINT Spine_virtual
	{
		OFFSET 0.000000 0.000000 0.000000
		CHANNELS 3 Xrotation Yrotation Zrotation
		JOINT Spine
		{
			OFFSET 0.072000 7.257294 -0.789700
			CHANNELS 3 Xrotation Yrotation Zrotation
			JOINT Spine1
			{
				OFFSET 0.000000 12.508769 -0.658067
				CHANNELS 3 Xrotation Yrotation Zrotation
				JOINT Spine1_split
				{
					OFFSET 0.000000 12.508769 -0.658067
					CHANNELS 3 Xrotation Yrotation Zrotation
					JOINT Spine2
					{
						OFFSET 0.000000 12.508769 -0.658067
						CHANNELS 3 Xrotation Yrotation Zrotation
						JOINT Neck_virtual
						{
							OFFSET 0.000000 0.000000 0.000000
							CHANNELS 3 Xrotation Yrotation Zrotation
							JOINT Neck
							{
								OFFSET 0.000000 14.033295 7.520400
								CHANNELS 3 Xrotation Yrotation Zrotation
								JOINT Head
								{
									OFFSET 0.000000 8.198502 5.703100
									CHANNELS 3 Xrotation Yrotation Zrotation
									JOINT HeadTop_End
									{
										OFFSET 0.000000 17.760803 13.332701
										CHANNELS 3 Xrotation Yrotation Zrotation
										End Site
										{
											OFFSET 0 0 0
										}
									}
								}
							}
						}
						JOINT LeftShoulder_virtual
						{
							OFFSET 0.000000 0.000000 0.000000
							CHANNELS 3 Xrotation Yrotation Zrotation
							JOINT LeftShoulder
							{
								OFFSET 6.292450 5.785301 -0.669000
								CHANNELS 3 Xrotation Yrotation Zrotation
								JOINT LeftShoulder_split
								{
									OFFSET 6.292450 5.785301 -0.669000
									CHANNELS 3 Xrotation Yrotation Zrotation
									JOINT LeftArm
									{
										OFFSET 13.907140 -6.093903 1.965100
										CHANNELS 3 Xrotation Yrotation Zrotation
										JOINT LeftForeArm
										{
											OFFSET 34.140198 0.000000 0.000000
											CHANNELS 3 Xrotation Yrotation Zrotation
											JOINT LeftHand
											{
												OFFSET 40.960209 0.000000 0.000000
												CHANNELS 3 Xrotation Yrotation Zrotation
												End Site
												{
													OFFSET 0 0 0
												}
											}
										}
									}
								}
							}
						}
						JOINT RightShoulder_virtual
						{
							OFFSET 0.000000 0.000000 0.000000
							CHANNELS 3 Xrotation Yrotation Zrotation
							JOINT RightShoulder
							{
								OFFSET -6.292450 5.785301 -0.669000
								CHANNELS 3 Xrotation Yrotation Zrotation
								JOINT RightShoulder_split
								{
									OFFSET -6.292450 5.785301 -0.669000
									CHANNELS 3 Xrotation Yrotation Zrotation
									JOINT RightArm
									{
										OFFSET -13.907140 -6.093903 1.965100
										CHANNELS 3 Xrotation Yrotation Zrotation
										JOINT RightForeArm
										{
											OFFSET -34.140198 0.000000 0.000000
											CHANNELS 3 Xrotation Yrotation Zrotation
											JOINT RightHand
											{
												OFFSET -40.960209 0.000000 0.000000
												CHANNELS 3 Xrotation Yrotation Zrotation
												End Site
												{
													OFFSET 0 0 0
												}
											}
										}
									}
								}
							}
						}
					}
				}
			}
		}
	}
}
MOTION
Frames: 10
Frame Time: 0.03333333
-30.567230 118.179611 -5.206749 0.000000 0.000000 0.000000 178.019510 -70.870528 179.117435 -103.018835 -9.650122 4.162772 65.035927 -13.190075 0.120222 47.932697 -8.971059 -22.854983 -9.336161 -0.265828 -4.049858 0.000000 0.000000 0.000000 177.675050 -67.782285 178.487692 -26.976020 33.905148 1.758150 32.899283 4.023031 3.410304 -9.700880 -6.564699 5.617199 -0.574148 8.517860 8.516535 0.000000 0.000000 0.000000 -178.048183 -70.486760 -176.780090 13.210510 9.571875 1.509448 10.658900 -0.094814 -5.754638 0.293712 -0.405800 0.053027 0.000000 0.000000 0.000000 9.606245 1.993832 -5.125492 -5.591021 47.569775 17.895714 -23.762901 -35.714728 -14.238970 0.000000 0.000000 0.000000 17.323311 -3.724110 -0.445635 -3.335455 -15.673336 17.600339 -20.082317 -2.475363 2.985220 -34.854858 -38.198731 -26.514238 -107.251681 -20.393350 -108.353131 0.000000 0.000000 0.000000 8.727986 -3.250420 -2.338962 -8.449043 39.964489 13.067405 -24.690963 -16.912016 -10.467569 -47.124801 11.519899 20.231872 156.847330 46.310411 -139.366964 0.000000 0.000000 0.000000 
-32.315407 119.719200 -6.317814 0.000000 0.000000 0.000000 -179.836272 -67.773597 -177.236114 -106.163775 -6.165613 6.176981 61.772470 -13.817746 0.565546 48.041549 -10.110596 -25.032722 -11.047454 -0.265552 -2.141184 0.000000 0.000000 0.000000 178.902749 -65.097256 -178.952923 -26.550928 36.509291 1.401817 31.767022 4.416055 3.714478 -8.643008 -7.883643 4.761890 2.212897 8.831328 9.809301 0.000000 0.000000 0.000000 -174.955173 -67.847937 -172.892333 14.303280 9.033168 -0.113255 11.526193 -0.118924 -6.099439 0.217424 -0.332576 0.119720 0.000000 0.000000 0.000000 10.831264 1.992755 -5.820412 -5.626056 47.858391 21.702518 -18.938356 -34.299072 -7.593949 0.000000 0.000000 0.000000 18.633110 -3.858953 -1.044490 -2.816885 -14.715190 22.591587 -18.940029 -2.133529 2.882030 -48.605433 -39.100535 -29.988014 -104.962536 -21.222395 -106.341742 0.000000 0.000000 0.000000 10.059248 -3.221182 -2.937267 -7.723553 42.764921 10.403421 -24.282306 -17.918100 -11.504018 -53.993246 11.889492 19.410266 160.122679 48.556242 -143.312095 0.000000 0.000000 0.000000 
-33.567318 120.904762 -7.211025 0.000000 0.000000 0.000000 -178.811033 -64.855897 -174.705119 -108.174364 -3.368194 8.501525 59.093718 -13.621431 0.356237 46.921579 -10.121788 -28.074352 -11.654400 -0.258956 -0.939248 0.000000 0.000000 0.000000 179.612556 -63.018645 -177.031168 -26.190249 38.388078 0.413313 30.776962 5.013183 3.738546 -7.526870 -8.441770 4.206425 3.838451 9.421596 9.895031 0.000000 0.000000 0.000000 -172.664805 -65.829766 -169.654099 15.322927 8.320365 -1.729817 12.251710 -0.069945 -6.382185 0.166172 -0.382424 0.143592 0.000000 0.000000 0.000000 11.879571 1.987034 -6.374882 -5.727215 48.162519 25.645258 -14.401047 -32.863872 -2.129372 0.000000 0.000000 0.000000 19.619599 -3.931762 -1.682600 -2.417942 -13.713838 27.810162 -17.455576 -1.861472 2.710764 -62.196597 -40.100290 -35.089899 -102.651548 -22.485604 -104.092370 0.000000 0.000000 0.000000 11.264840 -3.122397 -3.431030 -6.589782 45.073931 7.467830 -24.611070 -18.988846 -12.347089 -59.799242 11.529407 17.768689 163.638423 51.459601 -147.371235 0.000000 0.000000 0.000000 
-34.370117 121.503860 -7.965542 0.000000 0.000000 0.000000 -178.085298 -62.215053 -172.527928 -109.112101 -1.636047 10.272340 57.136199 -12.590432 -0.359684 44.829568 -9.125070 -32.554157 -10.432013 -0.284289 -0.330351 0.000000 0.000000 0.000000 -179.926990 -61.853613 -175.697478 -24.685437 38.852401 -1.205458 29.664444 5.751682 3.369523 -8.028654 -7.967282 4.254607 1.167475 10.029932 8.619058 0.000000 0.000000 0.000000 -170.639094 -65.000656 -166.587289 16.281960 7.425539 -3.104054 12.765444 0.019395 -6.501063 0.220240 -0.547100 0.203962 0.000000 0.000000 0.000000 12.691369 1.998682 -6.656162 -6.146867 48.453949 29.284439 -11.380906 -31.752508 0.949921 0.000000 0.000000 0.000000 20.141226 -3.916530 -2.214498 -2.214176 -12.760853 32.672948 -15.563045 -1.797099 2.349670 -74.548953 -40.757942 -40.980664 -100.171575 -23.916230 -101.530605 0.000000 0.000000 0.000000 12.100916 -3.015292 -3.708439 -5.100660 46.519285 4.391709 -25.298041 -19.913029 -12.950102 -64.066382 10.686680 14.968698 168.463214 53.849843 -152.588953 0.000000 0.000000 0.000000 
-34.688774 121.685257 -8.392040 0.000000 0.000000 0.000000 -177.134959 -60.545993 -170.253830 -108.971830 -1.037679 10.871692 55.876227 -10.748216 -1.429484 41.986064 -7.251448 -38.444690 -8.411527 -0.497342 0.157800 0.000000 0.000000 0.000000 -178.679688 -61.507233 -173.555530 -22.537956 37.290504 -3.294013 29.964320 6.882518 2.513038 -9.518583 -6.522737 5.454018 -2.711900 10.969063 6.185558 0.000000 0.000000 0.000000 -168.413641 -65.576742 -163.419311 17.146789 6.291398 -4.144254 13.033357 0.124085 -6.389497 0.198197 -0.872768 0.267790 0.000000 0.000000 0.000000 13.179191 2.007655 -6.555327 -6.911913 48.703893 31.947851 -10.443699 -31.460838 1.288106 0.000000 0.000000 0.000000 20.197925 -3.830412 -2.544845 -2.246557 -11.703229 36.672013 -13.368919 -2.006703 2.095523 -84.434047 -41.367119 -46.746354 -97.477810 -25.240252 -98.667458 0.000000 0.000000 0.000000 12.489920 -2.956376 -3.716976 -3.646754 46.868980 1.680609 -26.199726 -21.041176 -13.329235 -66.761636 9.491112 11.076448 174.872418 54.628727 -159.303699 0.000000 0.000000 0.000000 
-34.779137 121.610306 -8.733166 0.000000 0.000000 0.000000 -175.606363 -60.692788 -167.444260 -107.695124 -1.160487 10.109569 54.669544 -7.897737 -2.702289 38.370934 -4.535376 -44.492385 -7.024651 -1.086613 1.025735 0.000000 0.000000 0.000000 -176.105513 -62.428899 -169.605891 -21.044407 33.874781 -5.337120 32.669102 8.270498 1.163217 -11.203849 -4.690961 7.764527 -4.084662 12.325355 3.161206 0.000000 0.000000 0.000000 -165.581913 -67.563050 -159.770883 17.968606 4.915425 -4.755727 13.062832 0.205312 -6.022217 0.171673 -1.232518 0.233859 0.000000 0.000000 0.000000 13.288858 1.996378 -6.072849 -7.998841 48.876489 33.055107 -11.913853 -32.353845 -1.131835 0.000000 0.000000 0.000000 19.827899 -3.688779 -2.680009 -2.581372 -10.475114 39.393662 -11.356924 -2.022624 2.072089 -91.328946 -42.466315 -51.933050 -94.694972 -26.114059 -95.572815 0.000000 0.000000 0.000000 12.419451 -2.937221 -3.492167 -2.461561 45.920321 -0.462641 -26.934962 -21.676886 -13.112169 -68.137913 8.382998 6.411244 -178.217476 53.271357 -166.462720 0.000000 0.000000 0.000000 
-34.568829 121.044212 -9.084064 0.000000 0.000000 0.000000 -172.828771 -62.997901 -163.429105 -105.861157 -2.127258 7.831897 53.983739 -4.478150 -3.675654 35.038573 -1.928518 -49.716681 -5.760700 -1.973055 1.962583 0.000000 0.000000 0.000000 -171.789462 -65.063235 -163.494061 -20.616547 28.998808 -6.951859 37.318986 9.731401 -0.628133 -13.232704 -3.077627 10.943189 -4.168866 13.652873 0.269618 0.000000 0.000000 0.000000 -161.041230 -71.068549 -154.582918 18.831573 3.262038 -4.914223 12.958894 0.277591 -5.504949 0.216259 -1.490999 0.257442 0.000000 0.000000 0.000000 13.079527 1.982976 -5.308333 -9.367633 48.817780 32.314417 -15.207570 -34.205123 -5.932891 0.000000 0.000000 0.000000 19.092901 -3.507160 -2.734229 -3.189673 -9.149373 40.730802 -9.711633 -1.611973 2.095854 -95.640455 -44.432956 -56.551904 -91.990183 -26.336941 -92.390391 0.000000 0.000000 0.000000 12.060117 -2.907070 -3.132602 -1.644440 43.690480 -1.981555 -27.270961 -22.044990 -12.305059 -68.698937 7.844430 1.523447 -172.335276 50.152091 -172.595520 0.000000 0.000000 0.000000 
-34.229237 120.020660 -9.057835 0.000000 0.000000 0.000000 -168.073334 -67.230180 -157.439412 -104.684752 -4.116210 4.025887 54.339346 -1.089616 -4.033866 32.976983 -0.566228 -53.482495 -4.993247 -3.134218 3.114727 0.000000 0.000000 0.000000 -165.115479 -69.025912 -154.767183 -20.501952 23.328123 -7.900423 42.740448 10.807185 -2.648630 -15.476082 -2.391816 14.328741 -4.862682 14.675969 -1.810685 0.000000 0.000000 0.000000 -152.041869 -75.736587 -144.743948 19.734819 1.380068 -4.829132 12.808407 0.361641 -4.980984 0.239410 -1.643370 0.227116 0.000000 0.000000 0.000000 12.614430 1.927914 -4.458447 -10.958899 48.380142 29.817256 -19.473650 -36.729957 -12.247287 0.000000 0.000000 0.000000 18.149097 -3.328692 -2.824438 -4.072231 -7.608343 40.997814 -8.507934 -1.093760 2.237732 -98.389981 -47.470539 -60.898752 -89.719746 -25.842984 -89.452898 0.000000 0.000000 0.000000 11.670161 -2.833925 -2.744407 -1.211421 40.191654 -2.937924 -27.193780 -22.365897 -10.473350 -69.094924 8.154511 -3.066863 -168.191223 46.409346 -177.093063 0.000000 0.000000 0.000000 
-33.686199 118.504913 -8.339512 0.000000 0.000000 0.000000 -159.472158 -72.520415 -147.390319 -104.666509 -7.098525 -1.080581 55.896834 1.774219 -3.456685 32.491852 -0.511532 -54.667676 -4.665543 -4.541477 4.458184 0.000000 0.000000 0.000000 -153.993841 -73.834277 -141.663068 -20.584635 17.826729 -7.943492 47.184852 11.140319 -4.440546 -17.648596 -3.286654 17.070156 -4.647800 15.236142 -2.862758 0.000000 0.000000 0.000000 -129.356802 -80.416059 -120.672722 20.619540 -0.532671 -4.744660 12.608603 0.434024 -4.576413 0.375054 -1.671035 0.193121 0.000000 0.000000 0.000000 12.080944 1.854251 -3.705748 -12.849390 47.463845 26.219174 -24.036904 -39.679233 -19.206733 0.000000 0.000000 0.000000 16.941419 -3.109298 -3.023502 -5.127512 -5.946372 40.606192 -7.865982 -0.815143 2.847461 -100.471222 -51.232723 -64.825059 -88.136126 -24.918567 -87.099884 0.000000 0.000000 0.000000 11.325040 -2.690446 -2.404548 -0.962966 35.579268 -3.630376 -27.038788 -22.611558 -7.630638 -69.737174 9.479853 -6.707994 -165.658015 43.039249 179.868401 0.000000 0.000000 0.000000 
-32.924278 116.383545 -6.961670 0.000000 0.000000 0.000000 -142.450876 -77.875481 -128.840181 -105.682445 -10.587020 -6.898031 58.797158 3.860316 -2.102924 32.974883 -1.286046 -52.828023 -3.706265 -6.039218 5.713452 0.000000 0.000000 0.000000 -134.657903 -77.820580 -120.448091 -21.193430 13.504117 -7.165265 49.955467 10.623199 -5.649423 -19.467035 -6.025150 19.024001 -2.091328 15.245218 -2.964880 0.000000 0.000000 0.000000 -79.021279 -81.358755 -68.379667 21.255870 -2.324699 -4.880729 12.300570 0.564294 -4.376798 0.427896 -1.582309 0.211424 0.000000 0.000000 0.000000 11.581189 1.823113 -3.161299 -15.157277 45.968580 22.386382 -28.168969 -42.740138 -25.793096 0.000000 0.000000 0.000000 15.578080 -2.829927 -3.284117 -6.249700 -4.164593 40.100505 -7.350206 -0.935830 3.579112 -102.282110 -55.155335 -68.164871 -87.714730 -24.081823 -85.898617 0.000000 0.000000 0.000000 11.096212 -2.464145 -2.103992 -0.843420 30.229673 -4.195265 -26.362372 -22.569262 -4.223430 -71.004761 11.500882 -8.890808 -164.442910 40.624323 177.911934 0.000000 0.000000 0.000000 
